<?xml version="1.0"?>
<svg xmlns="http://www.w3.org/2000/svg" xmlns:xlink="http://www.w3.org/1999/xlink" version="1.1" id="Capa_1" x="0px" y="0px" viewBox="0 0 512 512" style="enable-background:new 0 0 512 512;" xml:space="preserve" width="512px" height="512px" class=""><g transform="matrix(0.461222, 0, 0, 0.461222, 137.927, 137.927)"><path style="fill:#6DACCB;" d="M512,256c0,141.385-114.615,256-256,256S0,397.385,0,256S114.615,0,256,0S512,114.615,512,256z" data-original="#6DACCB"/><path style="fill:#3693BD;" d="M460.505,410C413.781,471.948,339.571,512,256,512S98.219,471.948,51.495,410H460.505z" data-original="#3693BD" class=""/><g>
	<path style="fill:#A94B30;" d="M60,370v-34c0-5.523,4.477-10,10-10h380c5.523,0,10,4.477,10,10v34c0,5.523-4.477,10-10,10H70   C64.477,380,60,375.523,60,370z" data-original="#A94B30"/>
	<path style="fill:#A94B30;" d="M80,80v86v275.892c-19.994-18.937-36.927-41.066-50-65.569V166v-30.323V80c0-5.523,4.477-10,10-10   h30c3.799,0,7.102,2.118,8.795,5.237c0.017,0.031,0.03,0.065,0.046,0.097c0.134,0.253,0.262,0.511,0.374,0.777   c0.012,0.029,0.021,0.06,0.032,0.088c0.112,0.271,0.215,0.547,0.303,0.829c0.034,0.108,0.055,0.221,0.085,0.331   c0.057,0.208,0.117,0.414,0.161,0.626c0.048,0.233,0.077,0.473,0.109,0.711c0.012,0.094,0.033,0.186,0.043,0.28   C79.982,79.314,80,79.655,80,80z" data-original="#A94B30"/>
</g><path style="fill:#C5573A;" d="M390,286v40c0,5.523-4.477,10-10,10H80v105.892c-10.964-10.385-21.006-21.73-30-33.9V176v-71.992V80  c0-5.523,4.477-10,10-10h10c3.799,0,7.102,2.118,8.795,5.237c0.017,0.031,0.03,0.065,0.046,0.097  c0.134,0.253,0.262,0.511,0.374,0.777c0.012,0.029,0.021,0.06,0.032,0.088c0.112,0.271,0.215,0.547,0.303,0.829  c0.034,0.108,0.055,0.221,0.085,0.331c0.057,0.208,0.117,0.414,0.161,0.626c0.048,0.233,0.077,0.473,0.109,0.711  c0.012,0.094,0.033,0.186,0.043,0.28C79.982,79.314,80,79.655,80,80v86v110h300C385.523,276,390,280.477,390,286z" data-original="#C5573A" class=""/><path style="fill:#D9E7EC;" d="M500,333.638c-9.878,31.072-25.523,59.571-45.684,84.24l-11.898-2.115  c-21.393-3.803-43.333-3.268-64.516,1.574l-1.769,0.404c-23.782,5.436-48.483,5.436-72.265,0l0,0  c-22.325-5.103-45.478-5.419-67.934-0.928l-33.972,6.794c-6.188,1.237-11.961-3.496-11.961-9.806V266h310L500,333.638L500,333.638z" data-original="#D9E7EC"/><path style="fill:#C5D3DD;" d="M220.383,419.923l-18.422,3.685c-6.188,1.237-11.961-3.496-11.961-9.806V266h30v150.77  C220,417.862,220.137,418.916,220.383,419.923z" data-original="#C5D3DD"/><path style="fill:#FF5757;" d="M260,250h251.924c0.046,1.995,0.076,3.994,0.076,6c0,36.801-7.78,71.78-21.761,103.404  c-20.703-3.389-41.872-2.744-62.336,1.933l-1.769,0.404c-23.782,5.436-48.483,5.436-72.265,0l0,0  c-22.325-5.103-45.478-5.419-67.934-0.928l-33.972,6.794c-6.188,1.238-11.961-3.496-11.961-9.806V270  C240,258.954,248.954,250,260,250z" data-original="#FF5757"/><path style="fill:#FF4343;" d="M511.924,250c0.046,1.995,0.076,3.994,0.076,6c0,36.801-7.78,71.78-21.761,103.404  c-20.703-3.389-41.872-2.744-62.336,1.933l-1.769,0.404c-23.782,5.436-48.483,5.436-72.265,0l0,0  c-22.325-5.103-45.478-5.419-67.934-0.928l-33.972,6.794c-6.188,1.238-11.961-3.496-11.961-9.806v-30  c0,6.311,5.773,11.044,11.961,9.806l33.972-6.794c22.456-4.491,45.609-4.175,67.934,0.928l0,0c23.782,5.436,48.483,5.436,72.265,0  l1.769-0.404c20.465-4.677,41.634-5.322,62.336-1.933c10.905-24.667,18.016-51.382,20.627-79.404H511.924z" data-original="#FF4343"/><path style="fill:#FFF5F5;" d="M230,260L230,260c0,11.046-8.954,20-20,20H80c-11.046,0-20-8.954-20-20v-30c0-11.046,8.954-20,20-20  h100C207.614,210,230,232.386,230,260z" data-original="#FFF5F5"/><path style="fill:#FFF2B4;" d="M226.414,241.409C228.719,247.158,230,253.428,230,260l0,0c0,11.046-8.954,20-20,20H80  c-11.046,0-20-8.954-20-20v-30c0,11.046,8.954,20,20,20h130C216.802,250,222.801,246.598,226.414,241.409z" data-original="#FFF2B4" class=""/><path style="fill:#A94B30;" d="M510.521,228.453C511.49,237.504,512,246.692,512,256c0,56.915-18.584,109.484-50,151.992V233.667  c0-5.523,4.477-10,10-10h30C505.61,223.667,508.763,225.586,510.521,228.453z" data-original="#A94B30"/><path style="fill:#C5573A;" d="M510.521,228.453C511.49,237.504,512,246.692,512,256c0,43.497-10.862,84.452-30,120.323V233.667  c0-5.523,4.477-10,10-10h10C505.61,223.667,508.763,225.586,510.521,228.453z" data-original="#C5573A" class=""/><path style="fill:#B6C4CF;" d="M351,180H161c-5.523,0-10-4.477-10-10V70c0-5.523,4.477-10,10-10h190c5.523,0,10,4.477,10,10v100  C361,175.523,356.523,180,351,180z" data-original="#B6C4CF"/><path style="fill:#004C67;" d="M337,160H175c-2.761,0-5-2.239-5-5V85c0-2.761,2.239-5,5-5h162c2.761,0,5,2.239,5,5v70  C342,157.761,339.761,160,337,160z" data-original="#004C67"/><path style="fill:#FFDF8E;" d="M214.898,80c-0.473,2.093-0.733,4.266-0.733,6.502c0,16.238,13.164,29.401,29.401,29.401  c0.319,0,0.636-0.007,0.953-0.017C239.358,124.35,230.04,130,219.401,130C203.164,130,190,116.836,190,100.599  c0-8.024,3.217-15.294,8.428-20.599H214.898z" data-original="#FFDF8E"/><path style="fill:#FFF2B4;" d="M306.231,90l5.739,10.493l10.492,5.739l-10.492,5.739l-5.739,10.493l-5.739-10.493L290,106.231  l10.493-5.739L306.231,90z" data-original="#FFF2B4" class=""/><path style="fill:#007298" d="M271.97,140.493l10.492,5.738l-10.492,5.739l-4.392,8.03h-2.693l-4.392-8.03L250,146.231  l10.492-5.738L266.231,130L271.97,140.493z" data-original="#007298" class="active-path"/></g> </svg>
