<?xml version="1.0"?>
<svg xmlns="http://www.w3.org/2000/svg" height="512px" viewBox="0 0 512 512.00407" width="512px" class=""><g transform="matrix(0.474296, 0, 0, 0.474296, 134.58, 134.581)"><path d="m449.054688 171.148438c-70.199219-153.132813-122.855469-117.097657-122.855469-117.097657-24.875 10.214844-30.003907 37.808594-29.785157 59.789063.082032 7.539062-10.679687 9.304687-12.683593 2.039062-6.683594-24.25-6.4375-69.773437-4.863281-97.226562.183593-3.292969-3.277344-5.710938-6.164063-4.113282-4.535156 2.507813-10.335937 4.015626-16.699219 4.015626-6.367187 0-12.164062-1.507813-16.703125-4.015626-2.886719-1.589843-6.347656.828126-6.160156 4.113282 1.570313 27.453125 1.808594 72.976562-4.867187 97.226562-2.003907 7.265625-12.753907 5.492188-12.683594-2.039062.21875-21.980469-4.90625-49.574219-29.785156-59.789063 0 0-52.648438-36.035156-122.851563 117.105469 0 0-103.460937 196.070312-45.109375 323.691406 8.90625 19.472656 35.320312 23.542969 47.589844 6.109375.191406-.28125.386718-.566406.582031-.855469 5.214844-7.910156 13.613281-12.890624 22.90625-13.242187 49.683594-1.855469 187.15625-30.3125 142.980469-294.011719-1.359375-8.09375.503906-16.429687 5.351562-23.058594l18.75-25.660156 18.75 25.660156c4.84375 6.628907 6.699219 14.964844 5.347656 23.058594-44.164062 263.699219 93.300782 292.148438 142.980469 294.011719 9.304688.34375 17.699219 5.324219 22.90625 13.242187.195313.289063.390625.574219.585938.855469 12.269531 17.433594 38.691406 13.363281 47.585937-6.109375 58.351563-127.621094-45.105468-323.699218-45.105468-323.699218zm0 0" fill="#f76363" data-original="#F76363" class=""/><path d="m282.484375 17.65625c0-9.75-11.855469-17.65625-26.480469-17.65625-14.628906 0-26.484375 7.90625-26.484375 17.65625s11.855469 17.652344 26.484375 17.652344c14.625 0 26.480469-7.902344 26.480469-17.652344zm0 0" fill="#cb465f" data-original="#CB465F"/><g fill="#6b1e31"><path d="m44.140625 361.929688c-4.871094 0-8.828125-3.945313-8.828125-8.828126 0-4.878906 3.957031-8.824218 8.828125-8.824218 19.667969 0 34.109375-5.15625 42.929687-15.324219 12.796876-14.761719 10.160157-36.1875 10.125-36.390625-.0625-.414062-.089843-.835938-.089843-1.253906v-44.136719c0-18.316406 9.226562-52.964844 44.136719-52.964844 1.636718-.089843 17.65625-1.820312 17.65625-35.308593 0-4.882813 3.957031-8.828126 8.828124-8.828126 4.871094 0 8.828126 3.945313 8.828126 8.828126 0 52.363281-34.957032 52.964843-35.3125 52.964843-26.179688 0-26.480469 33.871094-26.480469 35.308594v43.601563c.527343 4.675781 2.507812 30.304687-14.355469 49.742187-12.320312 14.210937-31.257812 21.414063-56.265625 21.414063zm0 0" data-original="#000000" class="active-path" style="fill:#000000"/><path d="m52.960938 450.207031c-1.324219 0-2.675782-.300781-3.949219-.925781-4.359375-2.183594-6.125-7.488281-3.945313-11.847656.820313-1.640625 20.464844-40.191406 52.039063-40.191406 24.53125 0 41.347656-6.207032 49.992187-18.441407 13.574219-19.234375 3.589844-48.929687 3.484375-49.222656-5.902343-17.71875-4.703125-32.386719 3.496094-43.777344 14.945313-20.734375 47.582031-20.972656 48.957031-20.972656 4.875 0 8.828125 3.945313 8.828125 8.828125 0 4.878906-3.953125 8.828125-8.828125 8.828125-6.917968.035156-26.675781 2.550781-34.664062 13.679687-4.679688 6.515626-5.050782 15.828126-1.101563 27.667969.492188 1.394531 13.25 38.222657-5.757812 65.15625-12.128907 17.195313-33.800781 25.910157-64.40625 25.910157-20.453125 0-36.085938 30.125-36.238281 30.425781-1.550782 3.097656-4.667969 4.882812-7.90625 4.882812zm0 0" data-original="#000000" class="active-path" style="fill:#000000"/><path d="m97.105469 414.898438c-4.871094 0-8.828125-3.949219-8.828125-8.828126 0-9.738281-7.917969-17.65625-17.652344-17.65625-4.875 0-8.828125-3.945312-8.828125-8.828124 0-4.882813 3.953125-8.828126 8.828125-8.828126 19.472656 0 35.308594 15.835938 35.308594 35.3125 0 4.878907-3.953125 8.828126-8.828125 8.828126zm0 0" data-original="#000000" class="active-path" style="fill:#000000"/><path d="m70.625 308.964844c-4.875 0-8.828125-3.945313-8.828125-8.828125 0-24.335938 19.800781-44.136719 44.136719-44.136719 4.871094 0 8.828125 3.945312 8.828125 8.828125s-3.957031 8.828125-8.828125 8.828125c-14.601563 0-26.484375 11.878906-26.484375 26.480469 0 4.882812-3.953125 8.828125-8.824219 8.828125zm0 0" data-original="#000000" class="active-path" style="fill:#000000"/><path d="m167.726562 247.171875c-19.472656 0-35.308593-19.800781-35.308593-44.136719 0-4.882812 3.953125-8.828125 8.824219-8.828125 4.875 0 8.828124 3.945313 8.828124 8.828125 0 14.351563 8.085938 26.480469 17.65625 26.480469 4.871094 0 8.828126 3.949219 8.828126 8.828125 0 4.882812-3.957032 8.828125-8.828126 8.828125zm0 0" data-original="#000000" class="active-path" style="fill:#000000"/><path d="m467.863281 361.929688c-25.007812 0-43.941406-7.203126-56.265625-21.414063-16.859375-19.4375-14.882812-45.054687-14.355468-49.742187v-43.601563c-.007813-1.421875-.5-35.308594-26.480469-35.308594-.355469 0-35.3125-.601562-35.3125-52.964843 0-4.882813 3.957031-8.828126 8.828125-8.828126 4.875 0 8.828125 3.945313 8.828125 8.828126 0 33.488281 16.023437 35.21875 17.851562 35.308593 34.71875 0 43.941407 34.648438 43.941407 52.964844v44.136719c0 .417968-.027344.839844-.085938 1.253906-.019531.1875-2.746094 21.664062 10.21875 36.503906 8.828125 10.089844 23.234375 15.210938 42.832031 15.210938 4.875 0 8.828125 3.945312 8.828125 8.824218 0 4.882813-3.953125 8.828126-8.828125 8.828126zm0 0" data-original="#000000" class="active-path" style="fill:#000000"/><path d="m459.046875 450.199219c-3.230469 0-6.347656-1.777344-7.902344-4.855469-4.261719-8.476562-19.101562-30.445312-36.246093-30.445312-30.605469 0-52.277344-8.714844-64.40625-25.917969-19.015626-26.933594-6.25-63.773438-5.703126-65.316407 3.894532-11.6875 3.515626-21.019531-1.179687-27.535156-9.570313-13.273437-34.394531-13.644531-34.640625-13.644531-4.875 0-8.828125-3.949219-8.828125-8.828125 0-4.882812 3.953125-8.828125 8.828125-8.828125 1.386719 0 34.011719.238281 48.957031 20.972656 8.210938 11.390625 9.402344 26.058594 3.558594 43.609375-.160156.441406-10.285156 30.050782 3.476563 49.460938 8.644531 12.191406 25.449218 18.371094 49.9375 18.371094 31.578124 0 51.210937 38.550781 52.039062 40.191406 2.179688 4.351562.414062 9.648437-3.9375 11.828125-1.269531.636719-2.621094.9375-3.953125.9375zm0 0" data-original="#000000" class="active-path" style="fill:#000000"/><path d="m414.898438 414.898438c-4.871094 0-8.828126-3.949219-8.828126-8.828126 0-19.476562 15.835938-35.3125 35.3125-35.3125 4.871094 0 8.828126 3.945313 8.828126 8.828126 0 4.882812-3.957032 8.828124-8.828126 8.828124-9.738281 0-17.65625 7.917969-17.65625 17.65625 0 4.878907-3.953124 8.828126-8.828124 8.828126zm0 0" data-original="#000000" class="active-path" style="fill:#000000"/><path d="m441.382812 308.964844c-4.875 0-8.828124-3.945313-8.828124-8.828125 0-14.601563-11.882813-26.480469-26.484376-26.480469-4.871093 0-8.828124-3.945312-8.828124-8.828125s3.957031-8.828125 8.828124-8.828125c24.339844 0 44.140626 19.800781 44.140626 44.136719 0 4.882812-3.957032 8.828125-8.828126 8.828125zm0 0" data-original="#000000" class="active-path" style="fill:#000000"/><path d="m344.277344 247.171875c-4.871094 0-8.828125-3.945313-8.828125-8.828125 0-4.878906 3.957031-8.828125 8.828125-8.828125 9.570312 0 17.65625-12.128906 17.65625-26.480469 0-4.882812 3.953125-8.828125 8.828125-8.828125 4.871093 0 8.828125 3.945313 8.828125 8.828125 0 24.335938-15.835938 44.136719-35.3125 44.136719zm0 0" data-original="#000000" class="active-path" style="fill:#000000"/></g></g> </svg>
